<svg id="Layer_1" data-name="Layer 1" xmlns="http://www.w3.org/2000/svg" viewBox="0 0 500 500"><defs><style>.cls-1{fill:#70bf44;}.cls-2{fill:#129447;}.cls-3{fill:#fff;}</style></defs><title>Artboard 1</title><path class="cls-1" d="M430.2,151.75C425.06,239.9,410,308.19,386.76,349.23c-9.94,17.53-24,34.71-41.87,51.07a346,346,0,0,1-52.65,39.2,430.88,430.88,0,0,1-38,20.72l-3.58,1.65V37L431.94,67.18C432.29,90,432.08,119.51,430.2,151.75Z"/><path class="cls-2" d="M71.12,151.75c5.14,88.15,20.16,156.44,43.43,197.48,9.94,17.53,24,34.71,41.87,51.07a346,346,0,0,0,52.65,39.2,430.88,430.88,0,0,0,38,20.72l3.58,1.65V37L69.38,67.18C69,90,69.23,119.51,71.12,151.75Z"/><path class="cls-3" d="M201.66,219.48c24.61,36.91,44,74.88,57.31,113.91L241,331.63c14.41-87.54,47.11-173.33,91.41-257l32,15.82c-44.3,87.19-78.75,177.9-99.5,271.77L231.54,365c-18.28-39.73-39.72-82.27-65.39-120.59Z"/></svg>